<svg fill="#FFF" height="24" viewBox="0 0 24 24" width="24" xmlns="http://www.w3.org/2000/svg" xmlns:xlink="http://www.w3.org/1999/xlink"><defs><path d="M0 0h24v24H0V0z" id="a"/></defs><clipPath id="b"><use overflow="visible" xlink:href="#a"/></clipPath><path clip-path="url(#b)" d="M21 10h-6.8L17 7.4c-2.8-2.7-7.2-2.8-10 0-2.6 2.6-2.6 7 0 9.7 2.8 2.7 7.2 2.7 10 0 1.3-1.3 2-3 2-5h2c0 2-1 4.6-2.6 6.4C15 22 9 22 5.6 18.4s-3.5-9 0-12.6c3.5-3.5 9.2-3.5 12.7 0L21 3v7zm-8.5-2v4.3l3.5 2-.7 1.2L11 13V8h1.5z"/></svg>