<svg fill="#FFF" height="24" viewBox="0 0 24 24" width="24" xmlns="http://www.w3.org/2000/svg"><path d="M0 0h24v24H0zm0 0h24v24H0zm0 0h24v24H0zm0 0h24v24H0z" fill="none"/><path d="M12 7c2.8 0 5 2.2 5 5 0 .7 0 1.3-.4 1.8l3 3c1.5-1.3 2.7-3 3.4-4.8-1.7-4.4-6-7.5-11-7.5-1.4 0-2.7.3-4 .7l2.2 2.2C10.7 7 11.4 7 12 7zM2 4.3l2.3 2.2.4.5C3 8.3 1.7 10 1 12c1.7 4.4 6 7.5 11 7.5 1.6 0 3-.3 4.4-.8l.4.4 3 3 1.2-1.3L3.3 3 2 4.3zm5.5 5.5L9 11.4v.6c0 1.7 1.3 3 3 3h.7l1.5 1.5c-.7.3-1.4.5-2.2.5-2.8 0-5-2.2-5-5 0-.8.2-1.5.5-2.2zm4.3-.8l3.2 3.2V12c0-1.6-1.3-3-3-3h-.2z"/></svg>