<?xml version="1.0" encoding="utf-8"?>
<!-- Generator: Adobe Illustrator 16.0.4, SVG Export Plug-In . SVG Version: 6.00 Build 0)  -->
<!DOCTYPE svg PUBLIC "-//W3C//DTD SVG 1.1//EN" "http://www.w3.org/Graphics/SVG/1.1/DTD/svg11.dtd">
<svg version="1.1" id="Layer_1" xmlns="http://www.w3.org/2000/svg" xmlns:xlink="http://www.w3.org/1999/xlink" x="0px" y="0px"
	 width="434.738px" height="50.32px" viewBox="0 0 434.738 50.32" enable-background="new 0 0 434.738 50.32" xml:space="preserve">
<g>
	<path fill="#FFFFFF" d="M221.848,11.919c-0.152,0.153-0.229,0.383-0.383,0.535c-3.979,5.661-9.945,12.238-13.923,16.143
		c-3.901,3.98-10.557,9.945-16.142,13.924c-0.153,0.152-0.383,0.229-0.535,0.383c-1.836-1.377-3.366-3.061-4.667-4.975
		c-0.765-1.145-1.454-2.369-2.065-3.672c-1.224-2.754-1.912-5.734-1.912-8.951c0-12.238,9.867-22.106,22.107-22.106
		c3.213,0,6.273,0.688,8.952,1.913c1.299,0.535,2.446,1.225,3.594,1.988C218.711,8.553,220.395,10.084,221.848,11.919z"/>
	<path fill="#FFFFFF" d="M226.438,25.384c0,12.24-9.869,22.107-22.108,22.107c-3.596,0-7.038-0.843-10.021-2.371
		c-1.224-0.611-2.371-1.377-3.441-2.22c0.152-0.075,0.382-0.229,0.536-0.383c5.661-3.979,12.239-9.942,16.141-13.924
		c3.978-3.901,9.945-10.56,13.923-16.144c0.152-0.152,0.229-0.384,0.385-0.535c0.84,1.069,1.604,2.219,2.217,3.44
		C225.52,18.423,226.438,21.788,226.438,25.384z"/>
	<g>
		<g>
			<path fill="#FF6464" d="M224.523,14.673c-0.15,0.229-0.308,0.459-0.533,0.688c-4.131,5.66-9.946,12.087-13.771,15.911
				c-3.901,3.9-10.328,9.718-15.912,13.771c-0.229,0.149-0.459,0.307-0.688,0.535c-4.514,3.213-7.803,4.741-10.174,4.741
				c-1.225,0-2.143-0.383-2.907-1.146c-2.218-2.219-1.377-6.73,2.831-14.074l0.307-0.385l0.459-0.459
				c0.534,1.303,1.224,2.522,2.064,3.672c-3.213,5.814-3.213,8.188-2.907,8.568c0,0,0,0,0.229,0c0.611,0,2.601-0.31,7.421-3.672
				c0.153-0.076,0.382-0.23,0.534-0.386c5.662-3.979,12.24-9.942,16.143-13.922c3.979-3.9,9.945-10.558,13.922-16.144
				c0.154-0.152,0.229-0.383,0.383-0.535c4.207-6.043,3.598-7.649,3.598-7.649c-0.383-0.229-2.754-0.229-8.567,2.982
				c-1.146-0.766-2.295-1.454-3.596-1.989l0.842-0.765c7.343-4.208,11.78-5.049,14.075-2.831
				C230.414,3.886,229.268,7.942,224.523,14.673z"/>
		</g>
		<g>
			<path fill="#FFFFFF" d="M28.684,47.415h-2.372c-1.3,0-2.524-0.767-3.136-1.988l-5.738-12.088
				c-1.53-3.213-6.349-2.295-6.579,1.227l-0.612,9.642c-0.153,1.836-1.606,3.213-3.442,3.213H6.27c-1.989,0-3.595-1.687-3.442-3.672
				L4.893,7.56c0.077-1.837,1.606-3.289,3.44-3.289h1.683c1.377,0,2.601,0.765,3.137,2.064l11.169,24.863
				c1.224,2.756,5.125,2.756,6.273,0L41.688,6.335c0.536-1.226,1.76-2.064,3.137-2.064h1.759c1.836,0,3.366,1.452,3.443,3.289
				l2.065,36.188c0.076,1.985-1.454,3.672-3.442,3.672h-0.536c-1.836,0-3.29-1.377-3.442-3.213l-0.612-9.642
				c-0.229-3.521-5.049-4.438-6.579-1.227l-5.737,12.088C31.208,46.651,30.061,47.415,28.684,47.415z"/>
			<path fill="#FFFFFF" d="M69.842,47.415h-0.688c-1.913,0-3.443-1.529-3.443-3.439V7.789c0-1.912,1.53-3.442,3.443-3.442h0.688
				c1.912,0,3.442,1.53,3.442,3.442v36.186C73.285,45.885,71.752,47.415,69.842,47.415z"/>
			<path fill="#FFFFFF" d="M123.24,9.089c-0.383,1.836-2.142,3.06-4.055,2.753c-3.519-0.688-6.426-1.07-9.18-1.07
				c-11.016,0-16.83,6.427-16.83,14.994c0,9.256,6.426,15.453,16.141,15.453c2.601,0,6.273-0.459,10.175-1.225
				c1.836-0.386,3.672,0.842,4.054,2.678v0.076c0.383,1.836-0.765,3.672-2.601,4.055c-4.055,0.994-8.262,1.529-12.011,1.529
				c-14.306,0-23.792-9.027-23.792-22.566c0-13.465,9.486-22.415,23.944-22.415c3.978,0,7.88,0.384,11.628,1.148
				c1.836,0.382,3.06,2.218,2.677,4.054L123.24,9.089z"/>
			<path fill="#FFFFFF" d="M154.221,34.946c-0.688-0.92-1.683-1.452-2.83-1.452c-0.459,0-0.842,0-1.301,0h-2.601
				c-1.913,0-3.442,1.526-3.442,3.44v7.037c0,1.912-1.529,3.441-3.443,3.441h-0.688c-1.913,0-3.442-1.529-3.442-3.441V7.634
				c0-1.836,1.454-3.366,3.366-3.442c3.596-0.151,8.491-0.229,12.469-0.229c10.404,0,17.289,5.125,17.289,14.611
				c0,4.741-2.142,8.722-5.736,11.32c-1.53,1.146-1.836,3.289-0.688,4.818l5.201,7.27c1.684,2.295,0,5.509-2.831,5.509h-0.688
				c-1.146,0-2.217-0.535-2.83-1.453L154.221,34.946z M152.921,26.686c5.201,0,9.102-3.291,9.102-8.187
				c0-5.355-3.9-7.729-9.562-7.729c-1.683,0-3.366,0-5.125,0.075c-1.911,0-3.366,1.606-3.366,3.444v8.949
				c0,1.911,1.53,3.44,3.442,3.44L152.921,26.686L152.921,26.686z"/>
			<path fill="#FFFFFF" d="M273.104,9.089c-0.385,1.836-2.145,3.06-4.057,2.753c-3.52-0.688-6.426-1.07-9.182-1.07
				c-11.016,0-16.828,6.427-16.828,14.994c0,9.256,6.426,15.453,16.141,15.453c2.604,0,6.273-0.459,10.176-1.225
				c1.836-0.386,3.672,0.842,4.056,2.678v0.076c0.383,1.836-0.765,3.672-2.603,4.055c-4.055,0.994-8.264,1.529-12.012,1.529
				c-14.305,0-23.791-9.027-23.791-22.566c0-13.465,9.486-22.415,23.943-22.415c3.979,0,7.881,0.384,11.629,1.148
				c1.836,0.382,3.061,2.218,2.678,4.054L273.104,9.089z"/>
			<path fill="#FFFFFF" d="M327.111,25.843c0,13.541-9.486,22.49-22.949,22.49c-13.465,0-23.027-9.027-23.027-22.49
				c0-13.541,9.562-22.491,23.027-22.491C317.625,3.352,327.111,12.378,327.111,25.843z M319.154,25.843
				c0-9.18-6.271-15.376-14.992-15.376s-14.994,6.121-14.994,15.376c0,9.181,6.273,15.376,14.994,15.376
				S319.154,35.1,319.154,25.843z"/>
			<path fill="#FFFFFF" d="M368.727,10.007c-0.534,1.759-2.37,2.832-4.207,2.373c-4.207-1.146-8.413-1.76-11.477-1.76
				c-4.895,0-8.033,1.836-8.033,5.66c0,3.75,3.902,4.743,10.939,6.12c9.483,1.912,15.069,4.59,15.069,12.545
				c0,9.104-7.188,13.468-17.213,13.468c-4.282,0-9.717-0.689-15.069-2.449c-1.761-0.535-2.754-2.371-2.295-4.131l0.075-0.459
				c0.459-1.912,2.523-3.062,4.438-2.447c4.973,1.604,9.562,2.295,13.156,2.295c5.434,0,9.182-1.684,9.182-5.508
				c0-4.975-6.35-5.736-12.773-7.039c-9.485-1.987-13.541-4.972-13.541-12.086c0-7.879,6.505-12.854,16.296-12.854
				c4.59,0,9.334,0.843,13.079,1.837c1.839,0.536,2.906,2.447,2.371,4.284L368.727,10.007z"/>
			<path fill="#FFFFFF" d="M408.506,47.415h-2.371c-1.301,0-2.521-0.767-3.137-1.988l-5.736-12.088
				c-1.528-3.213-6.35-2.295-6.578,1.227l-0.61,9.642c-0.152,1.836-1.605,3.213-3.441,3.213h-0.535c-1.987,0-3.596-1.687-3.44-3.672
				l2.063-36.188c0.076-1.836,1.605-3.289,3.441-3.289h1.684c1.377,0,2.604,0.765,3.14,2.064l11.168,24.863
				c1.227,2.756,5.127,2.756,6.271,0l11.094-24.863c0.535-1.226,1.761-2.064,3.138-2.064h1.762c1.836,0,3.365,1.452,3.439,3.289
				l2.063,36.188c0.076,1.985-1.453,3.672-3.441,3.672h-0.532c-1.836,0-3.291-1.377-3.441-3.213l-0.611-9.642
				c-0.229-3.521-5.051-4.438-6.58-1.227l-5.735,12.088C411.031,46.651,409.807,47.415,408.506,47.415z"/>
		</g>
	</g>
</g>
</svg>
