<?xml version="1.0" encoding="utf-8"?>
<!-- Generator: Adobe Illustrator 16.0.4, SVG Export Plug-In . SVG Version: 6.00 Build 0)  -->
<!DOCTYPE svg PUBLIC "-//W3C//DTD SVG 1.1//EN" "http://www.w3.org/Graphics/SVG/1.1/DTD/svg11.dtd">
<svg version="1.1" id="Layer_1" xmlns="http://www.w3.org/2000/svg" xmlns:xlink="http://www.w3.org/1999/xlink" x="0px" y="0px"
	 width="434.738px" height="55.333px" viewBox="6.095 13.833 434.738 55.333" enable-background="new 6.095 13.833 434.738 55.333"
	 xml:space="preserve">
<g>
	<path fill="#184AE8" d="M228.125,28.249c-0.152,0.153-0.229,0.382-0.383,0.534c-3.979,5.662-9.945,12.24-13.923,16.143
		c-3.901,3.979-10.557,9.945-16.142,13.923c-0.153,0.153-0.383,0.229-0.535,0.383c-1.836-1.377-3.366-3.06-4.667-4.973
		c-0.765-1.146-1.454-2.371-2.065-3.672c-1.224-2.754-1.912-5.737-1.912-8.951c0-12.239,9.867-22.108,22.107-22.108
		c3.213,0,6.273,0.688,8.951,1.914c1.3,0.535,2.447,1.224,3.595,1.988C224.988,24.883,226.671,26.413,228.125,28.249z"/>
	<path fill="#184AE8" d="M232.715,41.713c0,12.24-9.869,22.108-22.109,22.108c-3.596,0-7.038-0.843-10.021-2.371
		c-1.224-0.612-2.371-1.377-3.441-2.22c0.152-0.075,0.382-0.229,0.536-0.383c5.661-3.978,12.239-9.943,16.141-13.923
		c3.978-3.901,9.945-10.558,13.923-16.142c0.152-0.153,0.229-0.383,0.384-0.535c0.841,1.07,1.605,2.218,2.218,3.441
		C231.797,34.752,232.715,38.117,232.715,41.713z"/>
	<g>
		<g>
			<path fill="#FF6464" d="M230.802,31.003c-0.152,0.229-0.307,0.459-0.535,0.688c-4.131,5.66-9.945,12.087-13.771,15.911
				c-3.901,3.901-10.328,9.717-15.912,13.771c-0.229,0.152-0.459,0.307-0.688,0.536c-4.514,3.213-7.803,4.743-10.174,4.743
				c-1.225,0-2.143-0.384-2.907-1.148c-2.218-2.218-1.377-6.731,2.831-14.075l0.307-0.383l0.459-0.459
				c0.534,1.301,1.224,2.524,2.064,3.672c-3.213,5.814-3.213,8.187-2.907,8.568c0,0,0,0,0.229,0c0.611,0,2.601-0.308,7.421-3.672
				c0.153-0.077,0.382-0.229,0.534-0.384c5.662-3.979,12.24-9.944,16.143-13.923c3.979-3.901,9.945-10.557,13.923-16.142
				c0.153-0.153,0.229-0.383,0.383-0.536c4.207-6.043,3.597-7.649,3.597-7.649c-0.383-0.229-2.754-0.229-8.568,2.982
				c-1.146-0.766-2.295-1.454-3.596-1.989l0.842-0.765c7.344-4.208,11.781-5.049,14.076-2.831
				C236.692,20.216,235.545,24.271,230.802,31.003z"/>
		</g>
		<g>
			<path fill="#184AE8" d="M34.961,63.745h-2.372c-1.3,0-2.524-0.767-3.136-1.989l-5.738-12.087
				c-1.53-3.213-6.349-2.295-6.579,1.224l-0.612,9.641c-0.153,1.836-1.606,3.213-3.442,3.213h-0.535
				c-1.989,0-3.595-1.685-3.442-3.672l2.065-36.186c0.077-1.836,1.606-3.289,3.442-3.289h1.683c1.377,0,2.601,0.764,3.137,2.064
				l11.169,24.863c1.224,2.754,5.125,2.754,6.273,0l11.092-24.863c0.536-1.225,1.76-2.064,3.137-2.064h1.759
				c1.836,0,3.366,1.452,3.443,3.289l2.065,36.186c0.076,1.987-1.454,3.672-3.442,3.672h-0.536c-1.836,0-3.29-1.377-3.442-3.213
				l-0.612-9.641c-0.229-3.519-5.049-4.437-6.579-1.224l-5.737,12.087C37.486,62.979,36.338,63.745,34.961,63.745z"/>
			<path fill="#184AE8" d="M76.12,63.745h-0.688c-1.913,0-3.443-1.53-3.443-3.442V24.118c0-1.912,1.53-3.442,3.443-3.442h0.688
				c1.912,0,3.442,1.53,3.442,3.442v36.185C79.562,62.215,78.031,63.745,76.12,63.745z"/>
			<path fill="#184AE8" d="M129.517,25.419c-0.383,1.836-2.142,3.06-4.055,2.754c-3.519-0.688-6.426-1.071-9.18-1.071
				c-11.016,0-16.83,6.426-16.83,14.994c0,9.256,6.426,15.453,16.141,15.453c2.601,0,6.273-0.459,10.175-1.225
				c1.836-0.383,3.672,0.842,4.054,2.678v0.076c0.383,1.836-0.765,3.672-2.601,4.055c-4.055,0.994-8.262,1.53-12.011,1.53
				c-14.306,0-23.792-9.027-23.792-22.567c0-13.464,9.486-22.415,23.944-22.415c3.978,0,7.88,0.384,11.628,1.148
				c1.836,0.382,3.06,2.218,2.677,4.054L129.517,25.419z"/>
			<path fill="#184AE8" d="M160.498,51.275c-0.688-0.919-1.683-1.453-2.83-1.453c-0.459,0-0.842,0-1.301,0h-2.601
				c-1.913,0-3.442,1.528-3.442,3.441v7.038c0,1.912-1.529,3.442-3.443,3.442h-0.688c-1.913,0-3.442-1.53-3.442-3.442V23.964
				c0-1.836,1.454-3.366,3.366-3.442c3.596-0.152,8.491-0.229,12.469-0.229c10.404,0,17.289,5.125,17.289,14.611
				c0,4.742-2.142,8.721-5.736,11.321c-1.53,1.147-1.836,3.289-0.688,4.819l5.201,7.268c1.684,2.295,0,5.509-2.831,5.509h-0.688
				c-1.146,0-2.217-0.535-2.83-1.453L160.498,51.275z M159.199,43.014c5.201,0,9.102-3.29,9.102-8.186
				c0-5.355-3.9-7.727-9.562-7.727c-1.683,0-3.366,0-5.125,0.075c-1.911,0-3.366,1.606-3.366,3.443v8.95
				c0,1.912,1.53,3.442,3.442,3.442L159.199,43.014L159.199,43.014z"/>
			<path fill="#184AE8" d="M279.38,25.419c-0.384,1.836-2.144,3.06-4.056,2.754c-3.52-0.688-6.426-1.071-9.181-1.071
				c-11.016,0-16.829,6.426-16.829,14.994c0,9.256,6.426,15.453,16.141,15.453c2.603,0,6.273-0.459,10.176-1.225
				c1.836-0.383,3.672,0.842,4.055,2.678v0.076c0.383,1.836-0.765,3.672-2.603,4.055c-4.054,0.994-8.262,1.53-12.01,1.53
				c-14.306,0-23.792-9.027-23.792-22.567c0-13.464,9.486-22.415,23.944-22.415c3.979,0,7.88,0.384,11.629,1.148
				c1.836,0.382,3.06,2.218,2.677,4.054L279.38,25.419z"/>
			<path fill="#184AE8" d="M333.389,42.172c0,13.541-9.486,22.491-22.95,22.491s-23.026-9.027-23.026-22.491
				c0-13.541,9.562-22.491,23.026-22.491S333.389,28.708,333.389,42.172z M325.433,42.172c0-9.18-6.273-15.376-14.994-15.376
				s-14.994,6.12-14.994,15.376c0,9.18,6.273,15.377,14.994,15.377S325.433,51.429,325.433,42.172z"/>
			<path fill="#184AE8" d="M375.005,26.337c-0.536,1.759-2.372,2.831-4.208,2.372c-4.207-1.146-8.415-1.76-11.476-1.76
				c-4.896,0-8.033,1.836-8.033,5.66c0,3.75,3.902,4.744,10.939,6.121c9.486,1.912,15.071,4.59,15.071,12.545
				c0,9.104-7.191,13.465-17.213,13.465c-4.284,0-9.717-0.688-15.07-2.448c-1.76-0.535-2.754-2.371-2.295-4.131l0.076-0.459
				c0.459-1.912,2.523-3.061,4.438-2.448c4.972,1.605,9.562,2.296,13.157,2.296c5.432,0,9.181-1.684,9.181-5.509
				c0-4.973-6.35-5.737-12.774-7.038c-9.486-1.988-13.541-4.972-13.541-12.086c0-7.88,6.503-12.853,16.295-12.853
				c4.59,0,9.333,0.842,13.081,1.836c1.836,0.537,2.906,2.448,2.371,4.285L375.005,26.337z"/>
			<path fill="#184AE8" d="M414.784,63.745h-2.371c-1.301,0-2.523-0.767-3.137-1.989l-5.737-12.087
				c-1.529-3.213-6.35-2.295-6.578,1.224l-0.612,9.641c-0.152,1.836-1.606,3.213-3.442,3.213h-0.535
				c-1.988,0-3.596-1.685-3.441-3.672l2.064-36.186c0.076-1.836,1.606-3.289,3.442-3.289h1.683c1.377,0,2.603,0.764,3.138,2.064
				l11.169,24.863c1.225,2.754,5.126,2.754,6.272,0l11.093-24.863c0.535-1.225,1.76-2.064,3.137-2.064h1.76
				c1.836,0,3.366,1.452,3.442,3.289l2.064,36.186c0.076,1.987-1.453,3.672-3.441,3.672h-0.535c-1.836,0-3.29-1.377-3.442-3.213
				l-0.611-9.641c-0.229-3.519-5.05-4.437-6.579-1.224l-5.737,12.087C417.309,62.979,416.085,63.745,414.784,63.745z"/>
		</g>
	</g>
</g>
</svg>
