<?xml version="1.0" encoding="utf-8"?>
<!-- Generator: Adobe Illustrator 16.0.4, SVG Export Plug-In . SVG Version: 6.00 Build 0)  -->
<!DOCTYPE svg PUBLIC "-//W3C//DTD SVG 1.1//EN" "http://www.w3.org/Graphics/SVG/1.1/DTD/svg11.dtd">
<svg version="1.1" id="Layer_1" xmlns="http://www.w3.org/2000/svg" xmlns:xlink="http://www.w3.org/1999/xlink" x="0px" y="0px"
	 width="452px" height="88px" viewBox="80.5 354.5 452 88" enable-background="new 80.5 354.5 452 88" xml:space="preserve">
<g>
	<path fill="#184AE8" d="M310.437,382.536c-0.152,0.153-0.229,0.382-0.382,0.535c-3.979,5.661-9.945,12.24-13.923,16.142
		c-3.901,3.979-10.557,9.945-16.142,13.923c-0.153,0.153-0.382,0.229-0.535,0.383c-1.836-1.377-3.366-3.06-4.667-4.973
		c-0.765-1.147-1.454-2.371-2.065-3.672c-1.224-2.754-1.913-5.737-1.913-8.951c0-12.24,9.868-22.108,22.108-22.108
		c3.213,0,6.273,0.688,8.951,1.913c1.3,0.536,2.448,1.224,3.595,1.989C307.301,379.17,308.983,380.7,310.437,382.536z"/>
	<path fill="#184AE8" d="M315.027,396c0,12.24-9.869,22.108-22.109,22.108c-3.596,0-7.038-0.842-10.021-2.371
		c-1.224-0.612-2.372-1.377-3.442-2.219c0.153-0.076,0.382-0.229,0.536-0.383c5.661-3.978,12.24-9.944,16.141-13.923
		c3.978-3.901,9.945-10.557,13.923-16.142c0.152-0.153,0.229-0.382,0.383-0.535c0.841,1.071,1.606,2.218,2.218,3.442
		C314.109,389.039,315.027,392.404,315.027,396z"/>
	<g>
		<g>
			<path fill="#FF6464" d="M313.114,385.29c-0.152,0.229-0.306,0.459-0.535,0.688c-4.131,5.661-9.945,12.087-13.77,15.912
				c-3.902,3.901-10.328,9.716-15.912,13.77c-0.229,0.153-0.459,0.307-0.688,0.536c-4.514,3.213-7.803,4.743-10.174,4.743
				c-1.224,0-2.142-0.383-2.907-1.148c-2.218-2.218-1.377-6.731,2.831-14.075l0.306-0.383l0.459-0.459
				c0.535,1.301,1.224,2.524,2.065,3.672c-3.213,5.814-3.213,8.186-2.907,8.568c0,0,0,0,0.229,0c0.612,0,2.601-0.307,7.421-3.672
				c0.153-0.077,0.382-0.229,0.535-0.383c5.661-3.979,12.24-9.945,16.142-13.923c3.978-3.902,9.945-10.557,13.923-16.142
				c0.153-0.153,0.229-0.383,0.383-0.536c4.207-6.043,3.596-7.65,3.596-7.65c-0.383-0.229-2.754-0.229-8.568,2.983
				c-1.147-0.765-2.295-1.454-3.596-1.989l0.842-0.765c7.344-4.208,11.781-5.049,14.076-2.831
				C319.005,374.503,317.857,378.558,313.114,385.29z"/>
		</g>
		<g>
			<path fill="#184AE8" d="M117.274,418.032h-2.372c-1.3,0-2.524-0.766-3.136-1.989l-5.738-12.087
				c-1.53-3.213-6.349-2.295-6.579,1.224l-0.612,9.64c-0.153,1.836-1.606,3.213-3.442,3.213H94.86c-1.989,0-3.595-1.684-3.442-3.672
				l2.065-36.185c0.077-1.836,1.606-3.29,3.442-3.29h1.683c1.377,0,2.601,0.765,3.137,2.065l11.169,24.863
				c1.224,2.754,5.125,2.754,6.273,0l11.092-24.863c0.536-1.224,1.76-2.065,3.137-2.065h1.759c1.836,0,3.366,1.453,3.443,3.29
				l2.065,36.185c0.076,1.988-1.454,3.672-3.442,3.672h-0.536c-1.836,0-3.29-1.377-3.442-3.213l-0.612-9.64
				c-0.229-3.519-5.049-4.437-6.579-1.224l-5.737,12.087C119.799,417.267,118.651,418.032,117.274,418.032z"/>
			<path fill="#184AE8" d="M158.432,418.032h-0.688c-1.913,0-3.443-1.53-3.443-3.442v-36.185c0-1.912,1.53-3.442,3.443-3.442h0.688
				c1.912,0,3.442,1.53,3.442,3.442v36.185C161.874,416.502,160.344,418.032,158.432,418.032z"/>
			<path fill="#184AE8" d="M211.829,379.706c-0.383,1.836-2.142,3.06-4.055,2.754c-3.519-0.688-6.426-1.071-9.18-1.071
				c-11.016,0-16.83,6.426-16.83,14.994c0,9.256,6.426,15.453,16.141,15.453c2.601,0,6.273-0.459,10.175-1.225
				c1.836-0.382,3.672,0.842,4.054,2.678v0.076c0.383,1.836-0.765,3.672-2.601,4.055c-4.055,0.994-8.262,1.53-12.011,1.53
				c-14.306,0-23.792-9.027-23.792-22.567c0-13.464,9.486-22.415,23.944-22.415c3.978,0,7.88,0.383,11.628,1.148
				c1.836,0.382,3.06,2.218,2.677,4.054L211.829,379.706z"/>
			<path fill="#184AE8" d="M242.811,405.562c-0.688-0.918-1.683-1.453-2.831-1.453c-0.459,0-0.841,0-1.3,0h-2.601
				c-1.913,0-3.442,1.529-3.442,3.442v7.038c0,1.912-1.53,3.442-3.443,3.442h-0.688c-1.913,0-3.442-1.53-3.442-3.442v-36.338
				c0-1.836,1.454-3.366,3.366-3.442c3.595-0.153,8.491-0.229,12.469-0.229c10.404,0,17.289,5.125,17.289,14.611
				c0,4.743-2.142,8.721-5.737,11.322c-1.53,1.147-1.836,3.289-0.688,4.819l5.202,7.268c1.683,2.295,0,5.508-2.831,5.508h-0.688
				c-1.147,0-2.218-0.535-2.831-1.453L242.811,405.562z M241.511,397.301c5.202,0,9.103-3.29,9.103-8.186
				c0-5.355-3.901-7.727-9.562-7.727c-1.683,0-3.366,0-5.125,0.076c-1.912,0-3.366,1.606-3.366,3.443v8.95
				c0,1.913,1.53,3.443,3.442,3.443H241.511z"/>
			<path fill="#184AE8" d="M361.692,379.706c-0.383,1.836-2.143,3.06-4.055,2.754c-3.52-0.688-6.426-1.071-9.181-1.071
				c-11.016,0-16.829,6.426-16.829,14.994c0,9.256,6.426,15.453,16.141,15.453c2.602,0,6.273-0.459,10.175-1.225
				c1.836-0.382,3.672,0.842,4.055,2.678v0.076c0.383,1.836-0.765,3.672-2.602,4.055c-4.054,0.994-8.262,1.53-12.01,1.53
				c-14.306,0-23.792-9.027-23.792-22.567c0-13.464,9.486-22.415,23.944-22.415c3.979,0,7.88,0.383,11.629,1.148
				c1.836,0.382,3.06,2.218,2.677,4.054L361.692,379.706z"/>
			<path fill="#184AE8" d="M415.701,396.459c0,13.541-9.486,22.491-22.95,22.491s-23.026-9.027-23.026-22.491
				c0-13.541,9.562-22.491,23.026-22.491S415.701,382.995,415.701,396.459z M407.745,396.459c0-9.18-6.273-15.376-14.994-15.376
				s-14.994,6.12-14.994,15.376c0,9.18,6.273,15.377,14.994,15.377S407.745,405.716,407.745,396.459z"/>
			<path fill="#184AE8" d="M457.317,380.624c-0.536,1.759-2.372,2.831-4.208,2.372c-4.207-1.147-8.415-1.76-11.475-1.76
				c-4.896,0-8.033,1.836-8.033,5.661c0,3.749,3.902,4.743,10.939,6.12c9.486,1.913,15.071,4.59,15.071,12.546
				c0,9.104-7.191,13.464-17.213,13.464c-4.284,0-9.716-0.688-15.07-2.448c-1.76-0.535-2.754-2.371-2.295-4.131l0.076-0.459
				c0.459-1.912,2.524-3.06,4.438-2.448c4.972,1.606,9.562,2.296,13.157,2.296c5.432,0,9.181-1.684,9.181-5.509
				c0-4.972-6.35-5.737-12.775-7.038c-9.486-1.988-13.541-4.972-13.541-12.086c0-7.88,6.503-12.852,16.295-12.852
				c4.59,0,9.333,0.841,13.081,1.836c1.836,0.536,2.907,2.448,2.371,4.284L457.317,380.624z"/>
			<path fill="#184AE8" d="M497.097,418.032h-2.371c-1.301,0-2.524-0.766-3.137-1.989l-5.737-12.087
				c-1.53-3.213-6.35-2.295-6.579,1.224l-0.612,9.64c-0.152,1.836-1.606,3.213-3.442,3.213h-0.535c-1.989,0-3.596-1.684-3.442-3.672
				l2.065-36.185c0.076-1.836,1.606-3.29,3.442-3.29h1.683c1.377,0,2.602,0.765,3.137,2.065l11.169,24.863
				c1.225,2.754,5.126,2.754,6.273,0l11.092-24.863c0.536-1.224,1.76-2.065,3.137-2.065h1.76c1.836,0,3.366,1.453,3.442,3.29
				l2.065,36.185c0.076,1.988-1.453,3.672-3.442,3.672h-0.535c-1.836,0-3.29-1.377-3.442-3.213l-0.612-9.64
				c-0.229-3.519-5.049-4.437-6.579-1.224l-5.737,12.087C499.621,417.267,498.397,418.032,497.097,418.032z"/>
		</g>
	</g>
</g>
</svg>
